<svg xmlns="http://www.w3.org/2000/svg" width="18" height="18" fill="none" viewBox="0 0 18 18"><path fill-rule="evenodd" stroke="#616061" stroke-linecap="round" stroke-linejoin="round" stroke-width="1.227" d="M13.4999 6C14.7426 6 15.7499 4.99264 15.7499 3.75C15.7499 2.50736 14.7426 1.5 13.4999 1.5C12.2573 1.5 11.2499 2.50736 11.2499 3.75C11.2499 4.99264 12.2573 6 13.4999 6Z" clip-rule="evenodd"/><path fill-rule="evenodd" stroke="#616061" stroke-linecap="round" stroke-linejoin="round" stroke-width="1.227" d="M4.49994 11.25C5.74258 11.25 6.74994 10.2426 6.74994 9C6.74994 7.75736 5.74258 6.75 4.49994 6.75C3.2573 6.75 2.24994 7.75736 2.24994 9C2.24994 10.2426 3.2573 11.25 4.49994 11.25Z" clip-rule="evenodd"/><path fill-rule="evenodd" stroke="#616061" stroke-linecap="round" stroke-linejoin="round" stroke-width="1.227" d="M13.4999 16.5C14.7426 16.5 15.7499 15.4926 15.7499 14.25C15.7499 13.0074 14.7426 12 13.4999 12C12.2573 12 11.2499 13.0074 11.2499 14.25C11.2499 15.4926 12.2573 16.5 13.4999 16.5Z" clip-rule="evenodd"/><path stroke="#616061" stroke-linecap="round" stroke-linejoin="round" stroke-width="1.227" d="M6.44226 10.1323L11.5648 13.1173"/><path stroke="#616061" stroke-linecap="round" stroke-linejoin="round" stroke-width="1.227" d="M11.5573 4.88232L6.44226 7.86732"/></svg>